<svg xmlns="http://www.w3.org/2000/svg" xmlns:xlink="http://www.w3.org/1999/xlink" width="500" zoomAndPan="magnify" viewBox="0 0 375 374.999991" height="500" preserveAspectRatio="xMidYMid meet" version="1.0"><defs><g/></defs><g fill="#d9d9d9" fill-opacity="1"><g transform="translate(74.247369, 296.725501)"><g><path d="M 118.046875 -214.03125 C 109.941406 -213.8125 103.863281 -213.171875 99.8125 -212.109375 C 95.757812 -211.046875 92.664062 -208.59375 90.53125 -204.75 C 88.40625 -200.90625 87.34375 -194.71875 87.34375 -186.1875 L 87.34375 -33.265625 C 87.34375 -24.953125 88.351562 -18.875 90.375 -15.03125 C 92.40625 -11.195312 95.445312 -8.742188 99.5 -7.671875 C 103.550781 -6.609375 109.734375 -5.972656 118.046875 -5.765625 L 118.046875 0 L 5.4375 0 L 5.4375 -5.765625 C 13.539062 -5.765625 19.617188 -6.296875 23.671875 -7.359375 C 27.722656 -8.421875 30.816406 -10.925781 32.953125 -14.875 C 35.085938 -18.820312 36.15625 -24.953125 36.15625 -33.265625 L 36.15625 -186.1875 C 36.15625 -194.507812 35.085938 -200.644531 32.953125 -204.59375 C 30.816406 -208.539062 27.671875 -211.046875 23.515625 -212.109375 C 19.359375 -213.171875 13.332031 -213.8125 5.4375 -214.03125 L 5.4375 -219.78125 L 118.046875 -219.78125 Z M 118.046875 -214.03125 "/></g></g></g><g fill="#3efda1" fill-opacity="1"><g transform="translate(197.432598, 284.709249)"><g><path d="M 5.609375 77.734375 C -1.617188 77.734375 -7.972656 77.335938 -13.453125 76.546875 C -18.941406 75.765625 -23.613281 74.832031 -27.46875 73.75 L -27.46875 27.109375 C -23.613281 27.953125 -19.488281 28.765625 -15.09375 29.546875 C -10.695312 30.335938 -6.023438 30.734375 -1.078125 30.734375 C 5.421875 30.734375 11.257812 29.492188 16.4375 27.015625 C 21.625 24.546875 25.722656 19.878906 28.734375 13.015625 C 31.753906 6.148438 33.265625 -3.726562 33.265625 -16.625 L 33.265625 -264.28125 L 89.296875 -264.28125 L 89.296875 -16.984375 C 89.296875 5.660156 85.769531 23.941406 78.71875 37.859375 C 71.664062 51.785156 61.84375 61.910156 49.25 68.234375 C 36.664062 74.566406 22.117188 77.734375 5.609375 77.734375 Z M 5.609375 77.734375 "/></g></g></g></svg>