<svg xmlns="http://www.w3.org/2000/svg" xmlns:xlink="http://www.w3.org/1999/xlink" width="500" zoomAndPan="magnify" viewBox="0 0 375 374.999991" height="500" preserveAspectRatio="xMidYMid meet" version="1.0"><defs><g/></defs><g fill="#00c460" fill-opacity="1"><g transform="translate(76.159921, 287.341812)"><g><path d="M 25.125 -240.453125 C 25.125 -257.429688 34.578125 -265.921875 53.484375 -265.921875 C 72.398438 -265.921875 81.859375 -257.429688 81.859375 -240.453125 C 81.859375 -232.367188 79.492188 -226.070312 74.765625 -221.5625 C 70.035156 -217.0625 62.941406 -214.8125 53.484375 -214.8125 C 34.578125 -214.8125 25.125 -223.359375 25.125 -240.453125 Z M 79.46875 0 L 27.34375 0 L 27.34375 -191.0625 L 79.46875 -191.0625 Z M 79.46875 0 "/></g></g><g transform="translate(182.969911, 287.341812)"><g><path d="M 5.296875 73.484375 C -6.660156 73.484375 -17.085938 72.234375 -25.984375 69.734375 L -25.984375 25.640625 C -16.867188 27.910156 -8.550781 29.046875 -1.03125 29.046875 C 10.59375 29.046875 18.910156 25.425781 23.921875 18.1875 C 28.941406 10.957031 31.453125 -0.34375 31.453125 -15.71875 L 31.453125 -249.859375 L 84.421875 -249.859375 L 84.421875 -16.0625 C 84.421875 13.101562 77.753906 35.316406 64.421875 50.578125 C 51.097656 65.847656 31.390625 73.484375 5.296875 73.484375 Z M 5.296875 73.484375 "/></g></g></g></svg>