<svg xmlns="http://www.w3.org/2000/svg" xmlns:xlink="http://www.w3.org/1999/xlink" width="500" zoomAndPan="magnify" viewBox="0 0 375 374.999991" height="500" preserveAspectRatio="xMidYMid meet" version="1.0"><defs><g/></defs><g fill="#32f491" fill-opacity="1"><g transform="translate(10.3943, 331.749954)"><g><path d="M 23.09375 -213.84375 L 23.09375 -272.296875 L 94.5 -272.296875 L 94.5 -213.84375 Z M 6.296875 0 L 6.296875 -57.40625 L 21.703125 -57.40625 L 21.703125 -137.203125 L 6.296875 -137.203125 L 6.296875 -194.59375 L 102.203125 -194.59375 L 102.203125 -57.40625 L 117.59375 -57.40625 L 117.59375 0 Z M 6.296875 0 "/></g></g></g><g fill="#32f491" fill-opacity="1"><g transform="translate(131.492376, 331.749954)"><g><path d="M 95.546875 4.90625 C 77.578125 4.90625 60.539062 2.863281 44.4375 -1.21875 C 28.34375 -5.300781 14.929688 -10.960938 4.203125 -18.203125 L 4.203125 -79.796875 L 74.203125 -79.796875 L 74.203125 -76.296875 C 74.203125 -63.703125 80.269531 -57.40625 92.40625 -57.40625 C 98.695312 -57.40625 103.414062 -59.09375 106.5625 -62.46875 C 109.71875 -65.851562 111.296875 -71.164062 111.296875 -78.40625 L 111.296875 -214.90625 L 79.796875 -214.90625 L 79.796875 -272.296875 L 226.796875 -272.296875 L 226.796875 -214.90625 L 209.296875 -214.90625 L 209.296875 -97.296875 C 209.296875 -62.992188 199.257812 -37.382812 179.1875 -20.46875 C 159.125 -3.550781 131.242188 4.90625 95.546875 4.90625 Z M 95.546875 4.90625 "/></g></g></g></svg>