<svg xmlns="http://www.w3.org/2000/svg" xmlns:xlink="http://www.w3.org/1999/xlink" width="500" zoomAndPan="magnify" viewBox="0 0 375 374.999991" height="500" preserveAspectRatio="xMidYMid meet" version="1.0"><defs><g/></defs><g fill="#e6e6e4" fill-opacity="1"><g transform="translate(64.443361, 248.606677)"><g><path d="M 25.878906 -231.308594 L 72.140625 -231.308594 L 72.140625 0 L 25.878906 0 Z M 25.878906 -231.308594 "/></g></g></g><g fill="#e6e6e4" fill-opacity="1"><g transform="translate(162.789352, 248.606677)"><g><path d="M 10.351562 0 L 10.351562 -46.261719 L 54.671875 -46.261719 C 61.359375 -46.261719 66.910156 -48.527344 71.332031 -53.054688 C 75.753906 -57.585938 77.964844 -63.082031 77.964844 -69.554688 L 77.964844 -231.308594 L 124.875 -231.308594 L 124.875 -69.554688 C 124.875 -46.046875 119.105469 -28.578125 107.566406 -17.144531 C 96.027344 -5.714844 78.828125 0 55.964844 0 Z M 10.351562 0 "/></g></g></g><g fill="#e7e9ec" fill-opacity="1"><g transform="translate(10.283568, 334.915706)"><g><path d="M 4.894531 -43.742188 L 13.640625 -43.742188 L 13.640625 0 L 4.894531 0 Z M 4.894531 -43.742188 "/></g></g></g><g fill="#e7e9ec" fill-opacity="1"><g transform="translate(28.877499, 334.915706)"><g><path d="M 13.640625 -23.796875 L 13.640625 0 L 4.894531 0 L 4.894531 -44.65625 L 7.21875 -44.65625 L 29.304688 -18.964844 L 29.304688 -43.679688 L 38.113281 -43.679688 L 38.113281 0.917969 L 35.789062 0.917969 Z M 13.640625 -23.796875 "/></g></g></g><g fill="#e7e9ec" fill-opacity="1"><g transform="translate(71.937123, 334.915706)"><g><path d="M 20.859375 0 L 12.113281 0 L 12.113281 -34.992188 L 1.222656 -34.992188 L 1.222656 -43.679688 L 31.75 -43.679688 L 31.75 -34.992188 L 20.859375 -34.992188 Z M 20.859375 0 "/></g></g></g><g fill="#e7e9ec" fill-opacity="1"><g transform="translate(105.393963, 334.915706)"><g><path d="M 27.527344 0 L 4.894531 0 L 4.894531 -43.742188 L 26.792969 -43.742188 L 26.792969 -34.992188 L 13.640625 -34.992188 L 13.640625 -26.246094 L 25.144531 -26.246094 L 25.144531 -17.496094 L 13.640625 -17.496094 L 13.640625 -8.75 L 27.527344 -8.75 Z M 27.527344 0 "/></g></g></g><g fill="#e7e9ec" fill-opacity="1"><g transform="translate(136.22074, 334.915706)"><g><path d="M 26.671875 0 L 17.863281 -16.699219 L 13.640625 -16.699219 L 13.640625 0 L 4.894531 0 L 4.894531 -43.742188 L 22.144531 -43.742188 C 24.753906 -43.742188 26.96875 -43.199219 28.78125 -42.121094 C 30.597656 -41.039062 32.015625 -39.632812 33.035156 -37.898438 C 34.054688 -36.164062 34.6875 -34.289062 34.929688 -32.269531 C 35.175781 -30.25 35.023438 -28.273438 34.472656 -26.335938 C 33.921875 -24.398438 32.984375 -22.6875 31.660156 -21.199219 C 30.332031 -19.707031 28.589844 -18.660156 26.429688 -18.046875 L 36.582031 0 Z M 13.640625 -25.203125 L 21.351562 -25.203125 C 22.53125 -25.203125 23.480469 -25.53125 24.195312 -26.183594 C 24.910156 -26.835938 25.386719 -27.652344 25.632812 -28.628906 C 25.878906 -29.609375 25.878906 -30.585938 25.632812 -31.566406 C 25.386719 -32.546875 24.910156 -33.359375 24.195312 -34.011719 C 23.480469 -34.667969 22.53125 -34.992188 21.351562 -34.992188 L 13.640625 -34.992188 Z M 13.640625 -25.203125 "/></g></g></g><g fill="#e7e9ec" fill-opacity="1"><g transform="translate(173.714415, 334.915706)"><g><path d="M 13.640625 -23.796875 L 13.640625 0 L 4.894531 0 L 4.894531 -44.65625 L 7.21875 -44.65625 L 29.304688 -18.964844 L 29.304688 -43.679688 L 38.113281 -43.679688 L 38.113281 0.917969 L 35.789062 0.917969 Z M 13.640625 -23.796875 "/></g></g></g><g fill="#e7e9ec" fill-opacity="1"><g transform="translate(216.774039, 334.915706)"><g><path d="M 1.957031 0 L 1.957031 -8.75 L 10.339844 -8.75 C 11.601562 -8.75 12.652344 -9.175781 13.488281 -10.03125 C 14.324219 -10.890625 14.742188 -11.929688 14.742188 -13.152344 L 14.742188 -43.742188 L 23.613281 -43.742188 L 23.613281 -13.152344 C 23.613281 -8.707031 22.523438 -5.402344 20.339844 -3.242188 C 18.160156 -1.082031 14.90625 0 10.582031 0 Z M 1.957031 0 "/></g></g></g><g fill="#e7e9ec" fill-opacity="1"><g transform="translate(245.215417, 334.915706)"><g><path d="M 25.9375 0.613281 C 22.1875 0.613281 18.894531 -0.0195312 16.058594 -1.285156 C 13.222656 -2.550781 10.867188 -4.25 8.992188 -6.394531 C 7.117188 -8.535156 5.710938 -10.949219 4.773438 -13.640625 C 3.832031 -16.332031 3.363281 -19.097656 3.363281 -21.929688 C 3.363281 -24.765625 3.832031 -27.527344 4.773438 -30.222656 C 5.710938 -32.914062 7.117188 -35.328125 8.992188 -37.46875 C 10.867188 -39.609375 13.222656 -41.3125 16.058594 -42.578125 C 18.894531 -43.84375 22.1875 -44.476562 25.9375 -44.476562 C 29.691406 -44.476562 32.984375 -43.84375 35.816406 -42.578125 C 38.652344 -41.3125 41.007812 -39.609375 42.882812 -37.46875 C 44.761719 -35.328125 46.167969 -32.914062 47.105469 -30.222656 C 48.042969 -27.527344 48.511719 -24.765625 48.511719 -21.929688 C 48.511719 -19.097656 48.042969 -16.332031 47.105469 -13.640625 C 46.167969 -10.949219 44.761719 -8.535156 42.882812 -6.394531 C 41.007812 -4.25 38.652344 -2.550781 35.816406 -1.285156 C 32.984375 -0.0195312 29.691406 0.613281 25.9375 0.613281 Z M 25.9375 -8.441406 C 28.425781 -8.441406 30.566406 -8.929688 32.363281 -9.910156 C 34.15625 -10.890625 35.582031 -12.183594 36.644531 -13.796875 C 37.703125 -15.40625 38.417969 -17.171875 38.785156 -19.085938 C 39.152344 -21.003906 39.152344 -22.921875 38.785156 -24.835938 C 38.417969 -26.753906 37.703125 -28.519531 36.644531 -30.128906 C 35.582031 -31.738281 34.15625 -33.035156 32.363281 -34.011719 C 30.566406 -34.992188 28.425781 -35.480469 25.9375 -35.480469 C 23.449219 -35.480469 21.308594 -34.992188 19.515625 -34.011719 C 17.71875 -33.035156 16.292969 -31.738281 15.234375 -30.128906 C 14.171875 -28.519531 13.457031 -26.753906 13.089844 -24.835938 C 12.722656 -22.921875 12.722656 -21.003906 13.089844 -19.085938 C 13.457031 -17.171875 14.171875 -15.40625 15.234375 -13.796875 C 16.292969 -12.183594 17.71875 -10.890625 19.515625 -9.910156 C 21.308594 -8.929688 23.449219 -8.441406 25.9375 -8.441406 Z M 25.9375 -8.441406 "/></g></g></g><g fill="#e7e9ec" fill-opacity="1"><g transform="translate(297.021526, 334.915706)"><g><path d="M 4.894531 0 L 4.894531 -43.800781 L 22.207031 -43.800781 C 24.816406 -43.800781 27.058594 -43.230469 28.9375 -42.089844 C 30.8125 -40.945312 32.25 -39.375 33.25 -37.378906 C 34.25 -35.378906 34.707031 -33.097656 34.625 -30.527344 C 34.585938 -28.894531 34.25 -27.285156 33.617188 -25.695312 C 32.984375 -24.101562 31.972656 -22.839844 30.585938 -21.902344 C 32.015625 -20.921875 33.125 -19.648438 33.921875 -18.078125 C 34.71875 -16.507812 35.113281 -14.867188 35.113281 -13.152344 C 35.113281 -10.707031 34.535156 -8.492188 33.371094 -6.515625 C 32.207031 -4.539062 30.648438 -2.957031 28.691406 -1.773438 C 26.734375 -0.589844 24.570312 0 22.207031 0 Z M 13.703125 -35.054688 L 13.703125 -26.246094 L 21.472656 -26.246094 C 22.738281 -26.246094 23.726562 -26.683594 24.441406 -27.558594 C 25.152344 -28.4375 25.511719 -29.464844 25.511719 -30.648438 C 25.511719 -31.871094 25.152344 -32.914062 24.441406 -33.769531 C 23.726562 -34.625 22.738281 -35.054688 21.472656 -35.054688 Z M 13.703125 -17.496094 L 13.703125 -8.75 L 21.472656 -8.75 C 22.738281 -8.75 23.789062 -9.175781 24.625 -10.03125 C 25.460938 -10.890625 25.878906 -11.929688 25.878906 -13.152344 C 25.878906 -14.375 25.460938 -15.40625 24.625 -16.242188 C 23.789062 -17.078125 22.738281 -17.496094 21.472656 -17.496094 Z M 13.703125 -17.496094 "/></g></g></g><g fill="#e7e9ec" fill-opacity="1"><g transform="translate(335.004489, 334.915706)"><g><path d="M 2.875 -2.8125 L 3.976562 -11.992188 C 5.648438 -10.808594 7.308594 -9.960938 8.960938 -9.453125 C 10.613281 -8.941406 12.113281 -8.644531 13.457031 -8.566406 C 14.804688 -8.484375 15.804688 -8.460938 16.457031 -8.503906 C 17.761719 -8.585938 18.871094 -9.042969 19.789062 -9.878906 C 20.707031 -10.714844 21.105469 -11.726562 20.984375 -12.90625 C 20.902344 -14.171875 20.433594 -15.128906 19.578125 -15.785156 C 18.71875 -16.4375 17.679688 -16.964844 16.457031 -17.375 C 14.171875 -18.230469 12.042969 -19.21875 10.0625 -20.339844 C 8.085938 -21.460938 6.496094 -22.859375 5.292969 -24.53125 C 4.089844 -26.203125 3.488281 -28.261719 3.488281 -30.710938 C 3.488281 -33.15625 4.007812 -35.371094 5.046875 -37.347656 C 6.085938 -39.324219 7.546875 -40.90625 9.421875 -42.089844 C 11.296875 -43.273438 13.4375 -43.925781 15.84375 -44.046875 C 16.988281 -44.128906 18.382812 -44.085938 20.035156 -43.925781 C 21.6875 -43.761719 23.917969 -43.191406 26.734375 -42.210938 L 25.632812 -33.769531 C 23.226562 -34.746094 21.308594 -35.308594 19.882812 -35.453125 C 18.453125 -35.59375 17.394531 -35.644531 16.699219 -35.605469 C 15.152344 -35.523438 14.019531 -34.992188 13.304688 -34.011719 C 12.59375 -33.035156 12.277344 -31.933594 12.359375 -30.710938 C 12.480469 -29.488281 13.011719 -28.558594 13.949219 -27.925781 C 14.886719 -27.292969 15.988281 -26.753906 17.25 -26.304688 C 19.535156 -25.488281 21.636719 -24.480469 23.550781 -23.277344 C 25.46875 -22.074219 27.007812 -20.625 28.171875 -18.933594 C 29.332031 -17.242188 29.914062 -15.234375 29.914062 -12.90625 C 29.914062 -10.5 29.382812 -8.320312 28.324219 -6.363281 C 27.265625 -4.40625 25.746094 -2.835938 23.765625 -1.652344 C 21.789062 -0.46875 19.433594 0.203125 16.699219 0.367188 C 15.886719 0.40625 14.773438 0.378906 13.367188 0.273438 C 11.960938 0.171875 10.359375 -0.113281 8.566406 -0.582031 C 6.769531 -1.050781 4.875 -1.792969 2.875 -2.8125 Z M 2.875 -2.8125 "/></g></g></g></svg>