<svg xmlns="http://www.w3.org/2000/svg" xmlns:xlink="http://www.w3.org/1999/xlink" width="500" zoomAndPan="magnify" viewBox="0 0 375 374.999991" height="500" preserveAspectRatio="xMidYMid meet" version="1.0"><defs><g/><clipPath id="f077255922"><path d="M 31.363281 131.25 L 343.636719 131.25 L 343.636719 224.21875 L 31.363281 224.21875 Z M 31.363281 131.25 " clip-rule="nonzero"/></clipPath><clipPath id="a1e456a623"><path d="M 37.363281 131.25 L 337.636719 131.25 C 339.230469 131.25 340.753906 131.882812 341.882812 133.007812 C 343.007812 134.132812 343.636719 135.660156 343.636719 137.25 L 343.636719 218.21875 C 343.636719 219.808594 343.007812 221.335938 341.882812 222.460938 C 340.753906 223.585938 339.230469 224.21875 337.636719 224.21875 L 37.363281 224.21875 C 35.769531 224.21875 34.246094 223.585938 33.117188 222.460938 C 31.992188 221.335938 31.363281 219.808594 31.363281 218.21875 L 31.363281 137.25 C 31.363281 135.660156 31.992188 134.132812 33.117188 133.007812 C 34.246094 131.882812 35.769531 131.25 37.363281 131.25 Z M 37.363281 131.25 " clip-rule="nonzero"/></clipPath><linearGradient x1="0.0075033" gradientTransform="matrix(0.363159, 0, 0, 0.363159, 31.358883, 131.249997)" y1="128" x2="859.890021" gradientUnits="userSpaceOnUse" y2="128" id="e7a0d2b5eb"><stop stop-opacity="1" stop-color="rgb(65.100098%, 65.100098%, 65.100098%)" offset="0"/><stop stop-opacity="1" stop-color="rgb(65.235901%, 65.235901%, 65.235901%)" offset="0.0078125"/><stop stop-opacity="1" stop-color="rgb(65.507507%, 65.507507%, 65.507507%)" offset="0.015625"/><stop stop-opacity="1" stop-color="rgb(65.78064%, 65.78064%, 65.78064%)" offset="0.0234375"/><stop stop-opacity="1" stop-color="rgb(66.053772%, 66.053772%, 66.053772%)" offset="0.03125"/><stop stop-opacity="1" stop-color="rgb(66.325378%, 66.325378%, 66.325378%)" offset="0.0390625"/><stop stop-opacity="1" stop-color="rgb(66.598511%, 66.598511%, 66.598511%)" offset="0.046875"/><stop stop-opacity="1" stop-color="rgb(66.871643%, 66.871643%, 66.871643%)" offset="0.0546875"/><stop stop-opacity="1" stop-color="rgb(67.14325%, 67.14325%, 67.14325%)" offset="0.0625"/><stop stop-opacity="1" stop-color="rgb(67.416382%, 67.416382%, 67.416382%)" offset="0.0703125"/><stop stop-opacity="1" stop-color="rgb(67.689514%, 67.689514%, 67.689514%)" offset="0.078125"/><stop stop-opacity="1" stop-color="rgb(67.962646%, 67.962646%, 67.962646%)" offset="0.0859375"/><stop stop-opacity="1" stop-color="rgb(68.234253%, 68.234253%, 68.234253%)" offset="0.09375"/><stop stop-opacity="1" stop-color="rgb(68.507385%, 68.507385%, 68.507385%)" offset="0.101562"/><stop stop-opacity="1" stop-color="rgb(68.780518%, 68.780518%, 68.780518%)" offset="0.109375"/><stop stop-opacity="1" stop-color="rgb(69.052124%, 69.052124%, 69.052124%)" offset="0.117187"/><stop stop-opacity="1" stop-color="rgb(69.325256%, 69.325256%, 69.325256%)" offset="0.125"/><stop stop-opacity="1" stop-color="rgb(69.598389%, 69.598389%, 69.598389%)" offset="0.132812"/><stop stop-opacity="1" stop-color="rgb(69.869995%, 69.869995%, 69.869995%)" offset="0.140625"/><stop stop-opacity="1" stop-color="rgb(70.143127%, 70.143127%, 70.143127%)" offset="0.148437"/><stop stop-opacity="1" stop-color="rgb(70.41626%, 70.41626%, 70.41626%)" offset="0.15625"/><stop stop-opacity="1" stop-color="rgb(70.687866%, 70.687866%, 70.687866%)" offset="0.164062"/><stop stop-opacity="1" stop-color="rgb(70.960999%, 70.960999%, 70.960999%)" offset="0.171875"/><stop stop-opacity="1" stop-color="rgb(71.234131%, 71.234131%, 71.234131%)" offset="0.179687"/><stop stop-opacity="1" stop-color="rgb(71.505737%, 71.505737%, 71.505737%)" offset="0.1875"/><stop stop-opacity="1" stop-color="rgb(71.77887%, 71.77887%, 71.77887%)" offset="0.195312"/><stop stop-opacity="1" stop-color="rgb(72.052002%, 72.052002%, 72.052002%)" offset="0.203125"/><stop stop-opacity="1" stop-color="rgb(72.323608%, 72.323608%, 72.323608%)" offset="0.210937"/><stop stop-opacity="1" stop-color="rgb(72.596741%, 72.596741%, 72.596741%)" offset="0.21875"/><stop stop-opacity="1" stop-color="rgb(72.869873%, 72.869873%, 72.869873%)" offset="0.226562"/><stop stop-opacity="1" stop-color="rgb(73.143005%, 73.143005%, 73.143005%)" offset="0.234375"/><stop stop-opacity="1" stop-color="rgb(73.414612%, 73.414612%, 73.414612%)" offset="0.242187"/><stop stop-opacity="1" stop-color="rgb(73.687744%, 73.687744%, 73.687744%)" offset="0.25"/><stop stop-opacity="1" stop-color="rgb(73.960876%, 73.960876%, 73.960876%)" offset="0.257812"/><stop stop-opacity="1" stop-color="rgb(74.232483%, 74.232483%, 74.232483%)" offset="0.265625"/><stop stop-opacity="1" stop-color="rgb(74.505615%, 74.505615%, 74.505615%)" offset="0.273437"/><stop stop-opacity="1" stop-color="rgb(74.778748%, 74.778748%, 74.778748%)" offset="0.28125"/><stop stop-opacity="1" stop-color="rgb(75.050354%, 75.050354%, 75.050354%)" offset="0.289062"/><stop stop-opacity="1" stop-color="rgb(75.323486%, 75.323486%, 75.323486%)" offset="0.296875"/><stop stop-opacity="1" stop-color="rgb(75.596619%, 75.596619%, 75.596619%)" offset="0.304687"/><stop stop-opacity="1" stop-color="rgb(75.868225%, 75.868225%, 75.868225%)" offset="0.3125"/><stop stop-opacity="1" stop-color="rgb(76.141357%, 76.141357%, 76.141357%)" offset="0.320312"/><stop stop-opacity="1" stop-color="rgb(76.41449%, 76.41449%, 76.41449%)" offset="0.328125"/><stop stop-opacity="1" stop-color="rgb(76.686096%, 76.686096%, 76.686096%)" offset="0.335937"/><stop stop-opacity="1" stop-color="rgb(76.959229%, 76.959229%, 76.959229%)" offset="0.34375"/><stop stop-opacity="1" stop-color="rgb(77.232361%, 77.232361%, 77.232361%)" offset="0.351562"/><stop stop-opacity="1" stop-color="rgb(77.505493%, 77.505493%, 77.505493%)" offset="0.359375"/><stop stop-opacity="1" stop-color="rgb(77.7771%, 77.7771%, 77.7771%)" offset="0.367187"/><stop stop-opacity="1" stop-color="rgb(78.050232%, 78.050232%, 78.050232%)" offset="0.375"/><stop stop-opacity="1" stop-color="rgb(78.323364%, 78.323364%, 78.323364%)" offset="0.382812"/><stop stop-opacity="1" stop-color="rgb(78.594971%, 78.594971%, 78.594971%)" offset="0.390625"/><stop stop-opacity="1" stop-color="rgb(78.868103%, 78.868103%, 78.868103%)" offset="0.398438"/><stop stop-opacity="1" stop-color="rgb(79.141235%, 79.141235%, 79.141235%)" offset="0.40625"/><stop stop-opacity="1" stop-color="rgb(79.412842%, 79.412842%, 79.412842%)" offset="0.414062"/><stop stop-opacity="1" stop-color="rgb(79.685974%, 79.685974%, 79.685974%)" offset="0.421875"/><stop stop-opacity="1" stop-color="rgb(79.959106%, 79.959106%, 79.959106%)" offset="0.429688"/><stop stop-opacity="1" stop-color="rgb(80.230713%, 80.230713%, 80.230713%)" offset="0.4375"/><stop stop-opacity="1" stop-color="rgb(80.503845%, 80.503845%, 80.503845%)" offset="0.445312"/><stop stop-opacity="1" stop-color="rgb(80.776978%, 80.776978%, 80.776978%)" offset="0.453125"/><stop stop-opacity="1" stop-color="rgb(81.048584%, 81.048584%, 81.048584%)" offset="0.460938"/><stop stop-opacity="1" stop-color="rgb(81.321716%, 81.321716%, 81.321716%)" offset="0.46875"/><stop stop-opacity="1" stop-color="rgb(81.594849%, 81.594849%, 81.594849%)" offset="0.476562"/><stop stop-opacity="1" stop-color="rgb(81.867981%, 81.867981%, 81.867981%)" offset="0.484375"/><stop stop-opacity="1" stop-color="rgb(82.139587%, 82.139587%, 82.139587%)" offset="0.492188"/><stop stop-opacity="1" stop-color="rgb(82.41272%, 82.41272%, 82.41272%)" offset="0.5"/><stop stop-opacity="1" stop-color="rgb(82.685852%, 82.685852%, 82.685852%)" offset="0.507812"/><stop stop-opacity="1" stop-color="rgb(82.957458%, 82.957458%, 82.957458%)" offset="0.515625"/><stop stop-opacity="1" stop-color="rgb(83.230591%, 83.230591%, 83.230591%)" offset="0.523437"/><stop stop-opacity="1" stop-color="rgb(83.503723%, 83.503723%, 83.503723%)" offset="0.53125"/><stop stop-opacity="1" stop-color="rgb(83.77533%, 83.77533%, 83.77533%)" offset="0.539062"/><stop stop-opacity="1" stop-color="rgb(84.048462%, 84.048462%, 84.048462%)" offset="0.546875"/><stop stop-opacity="1" stop-color="rgb(84.321594%, 84.321594%, 84.321594%)" offset="0.554687"/><stop stop-opacity="1" stop-color="rgb(84.593201%, 84.593201%, 84.593201%)" offset="0.5625"/><stop stop-opacity="1" stop-color="rgb(84.866333%, 84.866333%, 84.866333%)" offset="0.570312"/><stop stop-opacity="1" stop-color="rgb(85.139465%, 85.139465%, 85.139465%)" offset="0.578125"/><stop stop-opacity="1" stop-color="rgb(85.411072%, 85.411072%, 85.411072%)" offset="0.585937"/><stop stop-opacity="1" stop-color="rgb(85.684204%, 85.684204%, 85.684204%)" offset="0.59375"/><stop stop-opacity="1" stop-color="rgb(85.957336%, 85.957336%, 85.957336%)" offset="0.601562"/><stop stop-opacity="1" stop-color="rgb(86.228943%, 86.228943%, 86.228943%)" offset="0.609375"/><stop stop-opacity="1" stop-color="rgb(86.502075%, 86.502075%, 86.502075%)" offset="0.617187"/><stop stop-opacity="1" stop-color="rgb(86.775208%, 86.775208%, 86.775208%)" offset="0.625"/><stop stop-opacity="1" stop-color="rgb(87.04834%, 87.04834%, 87.04834%)" offset="0.632812"/><stop stop-opacity="1" stop-color="rgb(87.319946%, 87.319946%, 87.319946%)" offset="0.640625"/><stop stop-opacity="1" stop-color="rgb(87.593079%, 87.593079%, 87.593079%)" offset="0.648437"/><stop stop-opacity="1" stop-color="rgb(87.866211%, 87.866211%, 87.866211%)" offset="0.65625"/><stop stop-opacity="1" stop-color="rgb(88.137817%, 88.137817%, 88.137817%)" offset="0.664062"/><stop stop-opacity="1" stop-color="rgb(88.41095%, 88.41095%, 88.41095%)" offset="0.671875"/><stop stop-opacity="1" stop-color="rgb(88.684082%, 88.684082%, 88.684082%)" offset="0.679687"/><stop stop-opacity="1" stop-color="rgb(88.955688%, 88.955688%, 88.955688%)" offset="0.6875"/><stop stop-opacity="1" stop-color="rgb(89.228821%, 89.228821%, 89.228821%)" offset="0.695312"/><stop stop-opacity="1" stop-color="rgb(89.501953%, 89.501953%, 89.501953%)" offset="0.703125"/><stop stop-opacity="1" stop-color="rgb(89.77356%, 89.77356%, 89.77356%)" offset="0.710937"/><stop stop-opacity="1" stop-color="rgb(90.046692%, 90.046692%, 90.046692%)" offset="0.71875"/><stop stop-opacity="1" stop-color="rgb(90.319824%, 90.319824%, 90.319824%)" offset="0.726562"/><stop stop-opacity="1" stop-color="rgb(90.591431%, 90.591431%, 90.591431%)" offset="0.734375"/><stop stop-opacity="1" stop-color="rgb(90.864563%, 90.864563%, 90.864563%)" offset="0.742187"/><stop stop-opacity="1" stop-color="rgb(91.137695%, 91.137695%, 91.137695%)" offset="0.75"/><stop stop-opacity="1" stop-color="rgb(91.410828%, 91.410828%, 91.410828%)" offset="0.757812"/><stop stop-opacity="1" stop-color="rgb(91.682434%, 91.682434%, 91.682434%)" offset="0.765625"/><stop stop-opacity="1" stop-color="rgb(91.955566%, 91.955566%, 91.955566%)" offset="0.773438"/><stop stop-opacity="1" stop-color="rgb(92.228699%, 92.228699%, 92.228699%)" offset="0.78125"/><stop stop-opacity="1" stop-color="rgb(92.500305%, 92.500305%, 92.500305%)" offset="0.789062"/><stop stop-opacity="1" stop-color="rgb(92.773438%, 92.773438%, 92.773438%)" offset="0.796875"/><stop stop-opacity="1" stop-color="rgb(93.04657%, 93.04657%, 93.04657%)" offset="0.804688"/><stop stop-opacity="1" stop-color="rgb(93.318176%, 93.318176%, 93.318176%)" offset="0.8125"/><stop stop-opacity="1" stop-color="rgb(93.591309%, 93.591309%, 93.591309%)" offset="0.820312"/><stop stop-opacity="1" stop-color="rgb(93.864441%, 93.864441%, 93.864441%)" offset="0.828125"/><stop stop-opacity="1" stop-color="rgb(94.136047%, 94.136047%, 94.136047%)" offset="0.835938"/><stop stop-opacity="1" stop-color="rgb(94.40918%, 94.40918%, 94.40918%)" offset="0.84375"/><stop stop-opacity="1" stop-color="rgb(94.682312%, 94.682312%, 94.682312%)" offset="0.851562"/><stop stop-opacity="1" stop-color="rgb(94.953918%, 94.953918%, 94.953918%)" offset="0.859375"/><stop stop-opacity="1" stop-color="rgb(95.227051%, 95.227051%, 95.227051%)" offset="0.867188"/><stop stop-opacity="1" stop-color="rgb(95.500183%, 95.500183%, 95.500183%)" offset="0.875"/><stop stop-opacity="1" stop-color="rgb(95.773315%, 95.773315%, 95.773315%)" offset="0.882812"/><stop stop-opacity="1" stop-color="rgb(96.044922%, 96.044922%, 96.044922%)" offset="0.890625"/><stop stop-opacity="1" stop-color="rgb(96.318054%, 96.318054%, 96.318054%)" offset="0.898438"/><stop stop-opacity="1" stop-color="rgb(96.591187%, 96.591187%, 96.591187%)" offset="0.90625"/><stop stop-opacity="1" stop-color="rgb(96.862793%, 96.862793%, 96.862793%)" offset="0.914062"/><stop stop-opacity="1" stop-color="rgb(97.135925%, 97.135925%, 97.135925%)" offset="0.921875"/><stop stop-opacity="1" stop-color="rgb(97.409058%, 97.409058%, 97.409058%)" offset="0.929688"/><stop stop-opacity="1" stop-color="rgb(97.680664%, 97.680664%, 97.680664%)" offset="0.9375"/><stop stop-opacity="1" stop-color="rgb(97.953796%, 97.953796%, 97.953796%)" offset="0.945312"/><stop stop-opacity="1" stop-color="rgb(98.226929%, 98.226929%, 98.226929%)" offset="0.953125"/><stop stop-opacity="1" stop-color="rgb(98.498535%, 98.498535%, 98.498535%)" offset="0.960938"/><stop stop-opacity="1" stop-color="rgb(98.771667%, 98.771667%, 98.771667%)" offset="0.96875"/><stop stop-opacity="1" stop-color="rgb(99.0448%, 99.0448%, 99.0448%)" offset="0.976562"/><stop stop-opacity="1" stop-color="rgb(99.316406%, 99.316406%, 99.316406%)" offset="0.984375"/><stop stop-opacity="1" stop-color="rgb(99.589539%, 99.589539%, 99.589539%)" offset="0.992188"/><stop stop-opacity="1" stop-color="rgb(99.862671%, 99.862671%, 99.862671%)" offset="1"/></linearGradient></defs><g clip-path="url(#f077255922)"><g clip-path="url(#a1e456a623)"><path fill="url(#e7a0d2b5eb)" d="M 31.363281 131.25 L 31.363281 224.21875 L 343.636719 224.21875 L 343.636719 131.25 Z M 31.363281 131.25 " fill-rule="nonzero"/></g></g><g fill="#1f2937" fill-opacity="1"><g transform="translate(56.138224, 193.470808)"><g><path d="M 3.601562 -32.175781 L 10.035156 -32.175781 L 10.035156 0 L 3.601562 0 Z M 3.601562 -32.175781 "/></g></g></g><g fill="#1f2937" fill-opacity="1"><g transform="translate(69.818216, 193.470808)"><g><path d="M 10.035156 -17.503906 L 10.035156 0 L 3.601562 0 L 3.601562 -32.851562 L 5.308594 -32.851562 L 21.554688 -13.949219 L 21.554688 -32.128906 L 28.035156 -32.128906 L 28.035156 0.675781 L 26.324219 0.675781 Z M 10.035156 -17.503906 "/></g></g></g><g fill="#1f2937" fill-opacity="1"><g transform="translate(101.498184, 193.470808)"><g><path d="M 15.34375 0 L 8.910156 0 L 8.910156 -25.738281 L 0.898438 -25.738281 L 0.898438 -32.128906 L 23.355469 -32.128906 L 23.355469 -25.738281 L 15.34375 -25.738281 Z M 15.34375 0 "/></g></g></g><g fill="#1f2937" fill-opacity="1"><g transform="translate(126.113153, 193.470808)"><g><path d="M 20.25 0 L 3.601562 0 L 3.601562 -32.175781 L 19.710938 -32.175781 L 19.710938 -25.738281 L 10.035156 -25.738281 L 10.035156 -19.304688 L 18.496094 -19.304688 L 18.496094 -12.871094 L 10.035156 -12.871094 L 10.035156 -6.433594 L 20.25 -6.433594 Z M 20.25 0 "/></g></g></g><g fill="#1f2937" fill-opacity="1"><g transform="translate(148.793133, 193.470808)"><g><path d="M 19.621094 0 L 13.140625 -12.285156 L 10.035156 -12.285156 L 10.035156 0 L 3.601562 0 L 3.601562 -32.175781 L 16.289062 -32.175781 C 18.210938 -32.175781 19.835938 -31.777344 21.171875 -30.984375 C 22.507812 -30.1875 23.550781 -29.152344 24.300781 -27.878906 C 25.050781 -26.601562 25.515625 -25.222656 25.695312 -23.738281 C 25.875 -22.253906 25.761719 -20.796875 25.359375 -19.371094 C 24.953125 -17.949219 24.261719 -16.6875 23.289062 -15.59375 C 22.3125 -14.496094 21.03125 -13.726562 19.441406 -13.273438 L 26.910156 0 Z M 10.035156 -18.539062 L 15.703125 -18.539062 C 16.574219 -18.539062 17.273438 -18.78125 17.796875 -19.261719 C 18.324219 -19.738281 18.675781 -20.339844 18.855469 -21.058594 C 19.035156 -21.78125 19.035156 -22.5 18.855469 -23.21875 C 18.675781 -23.941406 18.324219 -24.539062 17.796875 -25.019531 C 17.273438 -25.5 16.574219 -25.738281 15.703125 -25.738281 L 10.035156 -25.738281 Z M 10.035156 -18.539062 "/></g></g></g><g fill="#1f2937" fill-opacity="1"><g transform="translate(176.378107, 193.470808)"><g><path d="M 10.035156 -17.503906 L 10.035156 0 L 3.601562 0 L 3.601562 -32.851562 L 5.308594 -32.851562 L 21.554688 -13.949219 L 21.554688 -32.128906 L 28.035156 -32.128906 L 28.035156 0.675781 L 26.324219 0.675781 Z M 10.035156 -17.503906 "/></g></g></g><g fill="#1f2937" fill-opacity="1"><g transform="translate(208.058075, 193.470808)"><g><path d="M 1.441406 0 L 1.441406 -6.433594 L 7.605469 -6.433594 C 8.535156 -6.433594 9.308594 -6.75 9.921875 -7.378906 C 10.539062 -8.011719 10.84375 -8.773438 10.84375 -9.675781 L 10.84375 -32.175781 L 17.371094 -32.175781 L 17.371094 -9.675781 C 17.371094 -6.40625 16.566406 -3.976562 14.960938 -2.386719 C 13.359375 -0.796875 10.964844 0 7.785156 0 Z M 1.441406 0 "/></g></g></g><g fill="#1f2937" fill-opacity="1"><g transform="translate(228.983058, 193.470808)"><g><path d="M 19.078125 0.449219 C 16.320312 0.449219 13.898438 -0.015625 11.8125 -0.945312 C 9.726562 -1.875 7.996094 -3.128906 6.613281 -4.703125 C 5.234375 -6.277344 4.199219 -8.054688 3.511719 -10.035156 C 2.820312 -12.015625 2.476562 -14.046875 2.476562 -16.132812 C 2.476562 -18.21875 2.820312 -20.25 3.511719 -22.230469 C 4.199219 -24.210938 5.234375 -25.988281 6.613281 -27.5625 C 7.996094 -29.136719 9.726562 -30.390625 11.8125 -31.320312 C 13.898438 -32.25 16.320312 -32.714844 19.078125 -32.714844 C 21.839844 -32.714844 24.261719 -32.25 26.347656 -31.320312 C 28.433594 -30.390625 30.164062 -29.136719 31.546875 -27.5625 C 32.925781 -25.988281 33.960938 -24.210938 34.648438 -22.230469 C 35.339844 -20.25 35.683594 -18.21875 35.683594 -16.132812 C 35.683594 -14.046875 35.339844 -12.015625 34.648438 -10.035156 C 33.960938 -8.054688 32.925781 -6.277344 31.546875 -4.703125 C 30.164062 -3.128906 28.433594 -1.875 26.347656 -0.945312 C 24.261719 -0.015625 21.839844 0.449219 19.078125 0.449219 Z M 19.078125 -6.210938 C 20.910156 -6.210938 22.484375 -6.570312 23.804688 -7.289062 C 25.125 -8.011719 26.175781 -8.960938 26.953125 -10.148438 C 27.734375 -11.332031 28.261719 -12.628906 28.53125 -14.039062 C 28.800781 -15.449219 28.800781 -16.859375 28.53125 -18.269531 C 28.261719 -19.679688 27.734375 -20.976562 26.953125 -22.164062 C 26.175781 -23.347656 25.125 -24.300781 23.804688 -25.019531 C 22.484375 -25.738281 20.910156 -26.101562 19.078125 -26.101562 C 17.25 -26.101562 15.675781 -25.738281 14.355469 -25.019531 C 13.035156 -24.300781 11.984375 -23.347656 11.203125 -22.164062 C 10.425781 -20.976562 9.898438 -19.679688 9.628906 -18.269531 C 9.359375 -16.859375 9.359375 -15.449219 9.628906 -14.039062 C 9.898438 -12.628906 10.425781 -11.332031 11.203125 -10.148438 C 11.984375 -8.960938 13.035156 -8.011719 14.355469 -7.289062 C 15.675781 -6.570312 17.25 -6.210938 19.078125 -6.210938 Z M 19.078125 -6.210938 "/></g></g></g><g fill="#1f2937" fill-opacity="1"><g transform="translate(267.098004, 193.470808)"><g><path d="M 3.601562 0 L 3.601562 -32.21875 L 16.335938 -32.21875 C 18.253906 -32.21875 19.90625 -31.800781 21.285156 -30.960938 C 22.664062 -30.121094 23.722656 -28.964844 24.457031 -27.496094 C 25.191406 -26.023438 25.53125 -24.34375 25.46875 -22.453125 C 25.441406 -21.253906 25.191406 -20.070312 24.726562 -18.898438 C 24.261719 -17.730469 23.519531 -16.800781 22.5 -16.109375 C 23.550781 -15.390625 24.367188 -14.453125 24.953125 -13.296875 C 25.539062 -12.140625 25.828125 -10.933594 25.828125 -9.675781 C 25.828125 -7.875 25.402344 -6.246094 24.546875 -4.792969 C 23.691406 -3.335938 22.546875 -2.175781 21.105469 -1.304688 C 19.664062 -0.433594 18.074219 0 16.335938 0 Z M 10.078125 -25.785156 L 10.078125 -19.304688 L 15.796875 -19.304688 C 16.726562 -19.304688 17.453125 -19.628906 17.976562 -20.273438 C 18.503906 -20.917969 18.765625 -21.675781 18.765625 -22.546875 C 18.765625 -23.445312 18.503906 -24.210938 17.976562 -24.839844 C 17.453125 -25.46875 16.726562 -25.785156 15.796875 -25.785156 Z M 10.078125 -12.871094 L 10.078125 -6.433594 L 15.796875 -6.433594 C 16.726562 -6.433594 17.496094 -6.75 18.113281 -7.378906 C 18.726562 -8.011719 19.035156 -8.773438 19.035156 -9.675781 C 19.035156 -10.574219 18.726562 -11.332031 18.113281 -11.949219 C 17.496094 -12.5625 16.726562 -12.871094 15.796875 -12.871094 Z M 10.078125 -12.871094 "/></g></g></g><g fill="#1f2937" fill-opacity="1"><g transform="translate(295.042986, 193.470808)"><g><path d="M 2.113281 -2.070312 L 2.925781 -8.820312 C 4.15625 -7.949219 5.378906 -7.328125 6.59375 -6.953125 C 7.808594 -6.578125 8.910156 -6.359375 9.898438 -6.300781 C 10.890625 -6.238281 11.625 -6.226562 12.105469 -6.253906 C 13.066406 -6.316406 13.882812 -6.652344 14.558594 -7.265625 C 15.234375 -7.882812 15.523438 -8.625 15.433594 -9.496094 C 15.375 -10.425781 15.03125 -11.128906 14.398438 -11.609375 C 13.769531 -12.089844 13.003906 -12.480469 12.105469 -12.78125 C 10.425781 -13.410156 8.859375 -14.136719 7.402344 -14.960938 C 5.949219 -15.789062 4.777344 -16.816406 3.890625 -18.046875 C 3.007812 -19.273438 2.566406 -20.789062 2.566406 -22.589844 C 2.566406 -24.390625 2.949219 -26.015625 3.710938 -27.472656 C 4.476562 -28.925781 5.550781 -30.089844 6.929688 -30.960938 C 8.308594 -31.828125 9.886719 -32.308594 11.65625 -32.398438 C 12.496094 -32.460938 13.523438 -32.429688 14.738281 -32.308594 C 15.953125 -32.191406 17.59375 -31.769531 19.664062 -31.050781 L 18.855469 -24.839844 C 17.085938 -25.558594 15.675781 -25.972656 14.625 -26.078125 C 13.574219 -26.183594 12.796875 -26.21875 12.285156 -26.191406 C 11.144531 -26.128906 10.3125 -25.738281 9.789062 -25.019531 C 9.261719 -24.300781 9.03125 -23.488281 9.089844 -22.589844 C 9.179688 -21.691406 9.570312 -21.007812 10.261719 -20.542969 C 10.949219 -20.078125 11.761719 -19.679688 12.691406 -19.351562 C 14.371094 -18.75 15.914062 -18.007812 17.324219 -17.121094 C 18.734375 -16.238281 19.867188 -15.171875 20.722656 -13.925781 C 21.578125 -12.683594 22.003906 -11.203125 22.003906 -9.496094 C 22.003906 -7.726562 21.613281 -6.121094 20.835938 -4.679688 C 20.054688 -3.238281 18.9375 -2.085938 17.484375 -1.214844 C 16.027344 -0.34375 14.296875 0.148438 12.285156 0.269531 C 11.683594 0.300781 10.867188 0.277344 9.832031 0.203125 C 8.796875 0.128906 7.621094 -0.0820312 6.300781 -0.425781 C 4.980469 -0.773438 3.585938 -1.320312 2.113281 -2.070312 Z M 2.113281 -2.070312 "/></g></g></g></svg>